<svg width="99" height="99" viewBox="0 0 99 99" fill="none" xmlns="http://www.w3.org/2000/svg">
<path fill-rule="evenodd" clip-rule="evenodd" d="M24 0C10.7451 0 0 10.7452 0 24V75C0 88.2548 10.7451 99 24 99H75C88.2549 99 99 88.2548 99 75V24C99 10.7452 88.2549 0 75 0H24ZM37.6406 73.6516C42.2307 76.0783 47.3483 77.2917 52.9935 77.2917C57.7946 77.2917 62.1472 76.4476 66.0514 74.7594C69.9556 73.0713 73.2266 70.6182 75.8646 67.4001L67.6342 59.8035C63.8883 64.1821 59.2455 66.3714 53.7058 66.3714C50.2765 66.3714 47.2164 65.6329 44.5256 64.1557C41.835 62.6259 39.7246 60.5157 38.1946 57.8252C36.7174 55.1347 35.9788 52.0749 35.9788 48.6458C35.9788 45.2168 36.7174 42.157 38.1946 39.4665C39.7246 36.776 41.835 34.6922 44.5256 33.2151C47.2164 31.6852 50.2765 30.9202 53.7058 30.9202C59.2455 30.9202 63.8883 33.0832 67.6342 37.4091L75.8646 29.8124C73.2266 26.6471 69.9556 24.2204 66.0514 22.5322C62.2 20.8441 57.8738 20 53.0726 20C47.3746 20 42.2307 21.2397 37.6406 23.7192C33.1034 26.1459 29.5157 29.5486 26.8778 33.9272C24.2926 38.2531 23 43.1593 23 48.6458C23 54.1323 24.2926 59.0649 26.8778 63.4435C29.5157 67.7694 33.1034 71.1721 37.6406 73.6516Z" fill="black"/>
</svg>
