<svg id="Слой_1" data-name="Слой 1" xmlns="http://www.w3.org/2000/svg" xmlns:xlink="http://www.w3.org/1999/xlink" viewBox="0 0 160 122"><defs><style>.cls-1{fill:none;}.cls-2{clip-path:url(#clip-path);}.cls-3{fill:#3ee7d6;}.cls-4{fill:#fac1d7;}.cls-5{fill:#3b1884;}</style><clipPath id="clip-path"><polygon class="cls-1" points="160 0 160 122 0 122 0 64 61.06 64 61.06 46 25.06 46 25.06 19 0 19 0 0 160 0"/></clipPath></defs><g class="cls-2"><path class="cls-3" d="M87,18a19,19,0,1,0,19,19A19,19,0,0,0,87,18Zm0,30A11,11,0,1,1,98,37,11,11,0,0,1,87,48Z"/><circle class="cls-4" cx="62" cy="119" r="33"/><path class="cls-5" d="M120.3,81,189,114l-48.85,23Q130.23,109,120.3,81Z"/><polygon class="cls-4" points="197.24 19.16 151.58 -1.98 159.93 -5.04 194.17 10.81 197.24 19.16"/><polygon class="cls-4" points="203.37 35.86 134.88 4.15 143.23 1.09 200.3 27.51 203.37 35.86"/><polygon class="cls-4" points="156.32 77.61 147.97 80.67 136.56 75.39 133.49 67.04 156.32 77.61"/><polygon class="cls-4" points="173.02 71.48 164.67 74.54 130.43 58.69 127.36 50.34 173.02 71.48"/><polygon class="cls-4" points="189.72 65.35 181.37 68.41 124.3 41.99 121.23 33.64 189.72 65.35"/><polygon class="cls-4" points="206.41 59.22 198.06 62.28 118.17 25.29 115.1 16.94 206.41 59.22"/><polygon class="cls-4" points="210.01 53.95 116.79 10.79 126.54 7.22 206.43 44.21 210.01 53.95"/></g></svg>