<svg id="Слой_1" data-name="Слой 1" xmlns="http://www.w3.org/2000/svg" xmlns:xlink="http://www.w3.org/1999/xlink" viewBox="0 0 160 122"><defs><style>.cls-1,.cls-7,.cls-8{fill:none;}.cls-2{clip-path:url(#clip-path);}.cls-3{fill:#3b1884;}.cls-4{clip-path:url(#clip-path-2);}.cls-5{fill:#fff;}.cls-6{fill:#faac57;}.cls-7{stroke:#fff;}.cls-7,.cls-8{stroke-miterlimit:10;}.cls-8{stroke:#faac57;}</style><clipPath id="clip-path"><polygon class="cls-1" points="160 -156 160 -34 0 -34 0 -92 61.06 -92 61.06 -110 25.06 -110 25.06 -137 0 -137 0 -156 160 -156"/></clipPath><clipPath id="clip-path-2"><polygon class="cls-1" points="160 0 160 122 0 122 0 64 61.06 64 61.06 46 25.06 46 25.06 19 0 19 0 0 160 0"/></clipPath></defs><g class="cls-2"><path class="cls-3" d="M116-80l72.3,36.15L152.15,22Z"/></g><g class="cls-4"><path class="cls-5" d="M128,20a10,10,0,1,0,10,10A10,10,0,0,0,128,20Zm0,15.77A5.77,5.77,0,1,1,133.77,30,5.78,5.78,0,0,1,128,35.77Z"/><path class="cls-6" d="M72,102a5,5,0,1,0,5,5A5,5,0,0,0,72,102Zm0,8.75A3.75,3.75,0,1,1,75.75,107,3.75,3.75,0,0,1,72,110.75Z"/><circle class="cls-5" cx="41" cy="92" r="4"/><circle class="cls-5" cx="125" cy="104" r="2"/><circle class="cls-6" cx="86" cy="7" r="2"/><circle class="cls-6" cx="137" cy="66" r="2"/><circle class="cls-6" cx="149" cy="115" r="1"/><circle class="cls-6" cx="102.5" cy="104.5" r="0.5"/><path class="cls-7" d="M120.5-24.5c-7.2,22.67-18,33.4-27,39-11.68,7.3-21.72,6.83-26,16-4.1,8.78-.78,21.81,7,28,9.5,7.56,18.67-.65,29,5,17.68,9.67,8,43.13,21,50,6.18,3.26,19,1.33,49-28"/><path class="cls-8" d="M65.78,141.92A68.59,68.59,0,0,1,56.55,105a26.22,26.22,0,0,1,2.17-10.6c1.59-3.27,4.5-6.06,8.07-6.74,3.29-.62,6.88.54,9.93-.84C80.86,85,81.78,79.43,81,74.94s-2.56-9-1.72-13.45c1.52-8,11.35-12.17,19.35-10.46S113.09,58.5,119,64.1c4.26,4,8.8,8.24,14.52,9.5,6.64,1.46,13.46-1.4,19.3-4.87s11.44-7.7,18-9.38"/><rect class="cls-6" x="89.28" y="33.54" width="15.15" height="1.26" rx="0.63" transform="translate(-5.84 35.79) rotate(-20.34)"/><rect class="cls-5" x="85.57" y="37.2" width="15.15" height="1.26" rx="0.63" transform="translate(-7.34 34.73) rotate(-20.34)"/><rect class="cls-6" x="137.8" y="6.26" width="29.83" height="2.49" rx="1" transform="translate(298.52 -38.54) rotate(159.66)"/><rect class="cls-5" x="142.17" y="-0.97" width="29.83" height="2.49" rx="1" transform="translate(304.47 -54.06) rotate(159.66)"/><rect class="cls-6" x="25.49" y="6.48" width="36.27" height="3.02" rx="1" transform="translate(14.19 -25.18) rotate(38.04)"/><rect class="cls-5" x="14.94" y="6.33" width="36.27" height="3.02" rx="1" transform="translate(11.86 -18.71) rotate(38.04)"/><rect class="cls-6" x="92.49" y="121.48" width="36.27" height="3.02" rx="1" transform="translate(99.29 -42.04) rotate(38.04)"/><rect class="cls-5" x="81.94" y="120.33" width="36.27" height="3.02" rx="1" transform="translate(96.33 -35.78) rotate(38.04)"/></g></svg>