<svg id="Слой_1" data-name="Слой 1" xmlns="http://www.w3.org/2000/svg" xmlns:xlink="http://www.w3.org/1999/xlink" viewBox="0 0 160 122"><defs><style>.cls-1,.cls-5,.cls-6{fill:none;}.cls-2{clip-path:url(#clip-path);}.cls-3{fill:#a8dcee;}.cls-4{fill:#fff;}.cls-5,.cls-6{stroke:#90c5f5;stroke-miterlimit:10;}.cls-5{stroke-width:2px;}</style><clipPath id="clip-path"><polygon class="cls-1" points="160 0 160 122 0 122 0 64 61.06 64 61.06 46 25.06 46 25.06 19 0 19 0 0 160 0"/></clipPath></defs><g class="cls-2"><polygon class="cls-3" points="138.59 -10.3 148.82 7.85 169.25 3.72 155.15 19.06 165.39 37.2 146.44 28.54 132.35 43.89 134.73 23.19 115.78 14.53 136.2 10.4 138.59 -10.3"/><polygon class="cls-4" points="82.54 59.47 86 80.01 106.6 83.08 88.13 92.71 91.59 113.26 76.72 98.67 58.24 108.3 67.52 89.65 52.65 75.06 73.26 78.12 82.54 59.47"/><polygon class="cls-4" points="11.13 99.59 14.51 104.07 19.81 102.24 16.6 106.83 19.98 111.31 14.62 109.67 11.41 114.27 11.3 108.67 5.94 107.03 11.24 105.2 11.13 99.59"/><polygon class="cls-5" points="142.73 90.14 142.18 99.24 150.67 102.57 141.84 104.86 141.3 113.96 136.39 106.28 127.57 108.57 133.36 101.53 128.45 93.84 136.94 97.18 142.73 90.14"/><polygon class="cls-6" points="42.61 2.54 42.34 6.99 46.49 8.61 42.17 9.73 41.91 14.18 39.51 10.43 35.2 11.54 38.03 8.11 35.63 4.35 39.78 5.98 42.61 2.54"/><circle class="cls-3" cx="76" cy="11" r="2"/><circle class="cls-4" cx="154.5" cy="55.5" r="0.5"/><circle class="cls-3" cx="115" cy="64" r="3"/><circle class="cls-3" cx="42" cy="109" r="1"/><circle class="cls-4" cx="63" cy="66" r="1"/><circle class="cls-3" cx="111" cy="110" r="1"/><circle class="cls-4" cx="115" cy="33" r="2"/><circle class="cls-4" cx="81.5" cy="30.5" r="0.5"/><circle class="cls-4" cx="152" cy="85" r="1"/></g></svg>