<svg width="146" height="111" viewBox="0 0 146 111" fill="none" xmlns="http://www.w3.org/2000/svg">
<g clip-path="url(#clip0)">
<path d="M64.3188 3L52 10.0967V24.272L64.3188 31.3687L76.6375 24.272V10.0967L64.3188 3ZM74.411 23.0164L64.3188 28.8029L54.2265 22.9982V11.3705L64.3188 5.56574L74.411 11.3705V23.0164Z" fill="white"/>
<path d="M130.944 5.58636L110.869 17.1504V40.2875L130.944 51.8606L151.019 40.2875V17.1504L130.944 5.58636ZM147.369 38.204L130.944 47.6754L114.482 38.2131V19.243L130.907 9.77161L147.332 19.243L147.369 38.204Z" fill="#F7921E"/>
<path d="M45.0684 71.877L30.1125 80.4932V97.7164L45.0684 106.323L60.0334 97.7164V80.4932L45.0684 71.877ZM57.3324 96.1606L45.0684 103.212L32.85 96.1606V82.049L45.1049 74.9887L57.3689 82.049L57.3324 96.1606Z" fill="#F7921E"/>
<path d="M108.943 70.9672L104.262 73.6967V79.0648L108.943 81.7943L113.634 79.0648V73.6967L108.943 70.9672ZM112.238 78.2459L108.943 80.1384L105.658 78.2459V74.4701L108.943 72.5776L112.238 74.4701V78.2459Z" fill="white"/>
<path d="M135.406 85.5246L120.45 94.1407V111.364L135.406 119.971L150.371 111.364V94.1407L135.406 85.5246Z" fill="#F7921E"/>
<path d="M77.9184 51.2238L71.8959 54.6993V61.6323L77.9184 65.1078L83.95 61.6323V54.6993L77.9184 51.2238Z" fill="#F7921E"/>
<path d="M102.556 46.4016L100.247 47.7391V50.4049L102.556 51.7333L104.874 50.4049V47.7391L102.556 46.4016Z" fill="#F7921E"/>
<path d="M141.309 65L139 66.3375V69.0033L141.309 70.3316L143.626 69.0033V66.3375L141.309 65Z" fill="#F7921E"/>
<path d="M45.3086 37L43 38.3375V41.0033L45.3086 42.3316L47.6264 41.0033V38.3375L45.3086 37Z" fill="white"/>
<path d="M35.3086 5L33 6.33746V9.00328L35.3086 10.3316L37.6264 9.00328V6.33746L35.3086 5Z" fill="#F7921E"/>
<path d="M79.7434 91.8934L75.847 94.1407V98.6262L79.7434 100.864L83.6489 98.6262V94.1407L79.7434 91.8934Z" fill="white"/>
<path d="M97.1357 7.55164L90.146 11.5822V19.6343L97.1357 23.6557L104.125 19.6343V11.5822L97.1357 7.55164Z" fill="white"/>
</g>
<defs>
<clipPath id="clip0">
<rect width="146" height="111" fill="white"/>
</clipPath>
</defs>
</svg>
